<svg xmlns="http://www.w3.org/2000/svg" xmlns:xlink="http://www.w3.org/1999/xlink" width="480" height="480" viewBox="0 0 480 480"><defs><path id="a" d="M9.99 0C4.47 0 0 4.48 0 10s4.47 10 9.99 10C15.52 20 20 15.52 20 10S15.52 0 9.99 0zM10 18c-4.42 0-8-3.58-8-8s3.58-8 8-8 8 3.58 8 8-3.58 8-8 8z"/><path id="c" d="M10.5 5H9v6l5.25 3.15.75-1.23-4.5-2.67z"/></defs><g fill="none" fill-rule="evenodd" opacity=".3"><path d="M45.608 43.608l20.784-12 12 20.784-20.784 12z"/><path fill="#9E9E9E" d="M53.572 49.402l13.856-8 1 1.732-13.856 8-1-1.732zm2 3.464l8.66-5 1 1.732-8.66 5-1-1.732z"/><path fill="#9E9E9E" fill-rule="nonzero" d="M124.246 139.534l-.517 1.932-17.387-4.66.518-1.93 17.386 4.658m-20.492 6.932l8.693 2.33.518-1.932-8.694-2.33-.517 1.932m1.294-4.83l17.387 4.66.517-1.933-17.387-4.658-.517 1.932z"/><path d="M105.515 128.303l23.182 6.212-6.212 23.182-23.182-6.212zM87.303 231.515l23.182-6.212 6.212 23.182-23.182 6.212z"/><path fill="#9E9E9E" d="M107.657 230.202l-15.455 4.141a1.997 1.997 0 0 0-1.405 2.447l3.097 11.594a2.006 2.006 0 0 0 2.45 1.414l15.454-4.141a2.006 2.006 0 0 0 1.414-2.45l-3.106-11.59a2.006 2.006 0 0 0-2.45-1.415zm1.035 3.864l-6.433 6.9-9.022-2.76-.517-1.931 9.021 2.76 6.433-6.901.518 1.932z"/><path d="M22 197h24v24H22z"/><path fill="#9E9E9E" d="M28.62 207.79c1.44 2.83 3.76 5.14 6.59 6.59l2.2-2.2c.27-.27.67-.36 1.02-.24 1.12.37 2.33.57 3.57.57.55 0 1 .45 1 1V217c0 .55-.45 1-1 1-9.39 0-17-7.61-17-17 0-.55.45-1 1-1h3.5c.55 0 1 .45 1 1 0 1.25.2 2.45.57 3.57.11.35.03.74-.25 1.02l-2.2 2.2z"/><path d="M34 334h24v24H34z"/><path fill="#9E9E9E" d="M53 337H39a2 2 0 0 0-2 2v14a2 2 0 0 0 2 2h14a2 2 0 0 0 2-2v-14a2 2 0 0 0-2-2zm-9 14l-5-5 1.41-1.41 3.59 3.58 7.59-7.59L53 342l-9 9z"/><path d="M209.515 98.303l23.182 6.212-6.212 23.182-23.182-6.212z"/><path fill="#9E9E9E" fill-rule="nonzero" d="M208.978 115.76l2.071-7.728-1.932-.518.518-1.932 3.864 1.035-2.589 9.66-1.932-.518m17.905 2.727a2 2 0 0 1-2.45 1.414l-3.863-1.035.517-1.932 3.864 1.035.518-1.932-1.932-.517.517-1.932 1.932.518.518-1.932-3.864-1.036.518-1.931 3.864 1.035a2 2 0 0 1 1.414 2.45l-.389 1.448a1.5 1.5 0 0 1-1.837 1.061 1.5 1.5 0 0 1 1.061 1.837l-.388 1.449m-7.728-2.07l-.517 1.931-5.796-1.553 1.035-3.863a2 2 0 0 1 2.45-1.415l1.932.518.517-1.932-3.863-1.035.517-1.932 3.864 1.035a2 2 0 0 1 1.414 2.45l-.517 1.932a2 2 0 0 1-2.45 1.414l-1.932-.518-.517 1.932 3.863 1.035z"/><path d="M142.608 333.608l20.784-12 12 20.784-20.784 12z"/><path fill="#9E9E9E" d="M160.562 326.706l-.866.5-1-1.732-1.732 1 1 1.732-6.928 4-1-1.732-1.732 1 1 1.732-.866.5a1.99 1.99 0 0 0-.724 2.727l6.992 12.13a2 2 0 0 0 2.732.731l12.124-7a2.006 2.006 0 0 0 .732-2.732l-7-12.124a2.006 2.006 0 0 0-2.732-.732zm8 13.856l-12.124 7-5.5-9.526 12.124-7 5.5 9.526zm-14.892-1.794l4.33-2.5 2.5 4.33-4.33 2.5-2.5-4.33z"/><g transform="rotate(15 -1198.055 1134.97)"><mask id="b" fill="#fff"><use xlink:href="#a"/></mask><g fill="#000" fill-opacity=".38" mask="url(#b)"><path d="M-2-2h24v24H-2z"/></g><mask id="d" fill="#fff"><use xlink:href="#c"/></mask><g fill="#000" fill-opacity=".38" mask="url(#d)"><path d="M-2-2h24v24H-2z"/></g></g><path d="M403 48h24v24h-24z"/><path fill="#9E9E9E" d="M425 57.24l-7.19-.62L415 50l-2.81 6.63-7.19.61 5.46 4.73-1.64 7.03 6.18-3.73 6.18 3.73-1.63-7.03 5.45-4.73zm-10 6.16l-3.76 2.27 1-4.28-3.32-2.88 4.38-.38 1.7-4.03 1.71 4.04 4.38.38-3.32 2.88 1 4.28L415 63.4z"/><path d="M146.303 43.515l23.182-6.212 6.212 23.182-23.182 6.212z"/><path fill="#9E9E9E" d="M173.178 54.949l-3.106-11.592a2.006 2.006 0 0 0-2.45-1.414l-17.386 4.659a2.006 2.006 0 0 0-1.414 2.45l3.106 11.59a2.006 2.006 0 0 0 2.45 1.415l17.386-4.659a2.006 2.006 0 0 0 1.414-2.45zm-15.43-1.56l3.195 2.26 2.213-5.262 5.9 4.63-13.523 3.624 2.216-5.252z"/><path d="M245.303 204.515l23.182-6.212 6.212 23.182-23.182 6.212z"/><path fill="#9E9E9E" d="M262.794 206.04l2.976 11.108a3.999 3.999 0 0 1-2.828 4.899 3.999 3.999 0 0 1-4.9-2.829l-3.234-12.074a2.5 2.5 0 0 1 4.83-1.294l2.717 10.143a1.003 1.003 0 0 1-.707 1.224 1.003 1.003 0 0 1-1.225-.707l-2.459-9.176-1.449.388 2.459 9.176a2.5 2.5 0 0 0 4.83-1.294l-2.718-10.142a3.999 3.999 0 0 0-4.899-2.828 3.999 3.999 0 0 0-2.828 4.899l3.235 12.074a5.497 5.497 0 0 0 6.736 3.889 5.497 5.497 0 0 0 3.89-6.736l-2.977-11.108-1.45.388z"/><path d="M286.303 20.515l23.182-6.212 6.212 23.182-23.182 6.212z"/><path fill="#9E9E9E" d="M292.884 29.622a1.498 1.498 0 0 0-1.06 1.837 1.498 1.498 0 0 0 1.837 1.06 1.498 1.498 0 0 0 1.06-1.837 1.498 1.498 0 0 0-1.837-1.06zm-1.553-5.796a1.498 1.498 0 0 0-1.06 1.837 1.498 1.498 0 0 0 1.837 1.06 1.498 1.498 0 0 0 1.06-1.836 1.498 1.498 0 0 0-1.837-1.06zm3.15 11.755a1.33 1.33 0 1 0 .687 2.569 1.33 1.33 0 0 0-.687-2.569zm3.501 1.475l13.523-3.624-.518-1.932-13.523 3.624.518 1.932zm-1.553-5.796l13.523-3.623-.517-1.932-13.523 3.623.517 1.932zm-2.07-7.727l.517 1.931 13.523-3.623-.517-1.932-13.523 3.624z"/><path d="M72.303 437.515l23.182-6.212 6.212 23.182-23.182 6.212z"/><path stroke="#9E9E9E" stroke-width="2" d="M75.857 446.915l6.762-1.812 1.294 4.83-6.762 1.812z"/><path fill="#9E9E9E" d="M98.72 443.377l-4.182 3.709-1.294-4.83z"/><path stroke="#9E9E9E" stroke-width="2" d="M82.619 445.103l6.761-1.811 1.294 4.83-6.761 1.811z"/><path d="M391 197h24v24h-24z"/><path stroke="#9E9E9E" stroke-width="2" d="M392 204h7v5h-7zM399 204h7v5h-7zM392 209h7v5h-7zM399 209h7v5h-7z"/><path fill="#9E9E9E" d="M415 209.5l-5 2.5v-5z"/><path d="M198.608 417.608l20.784 12-12 20.784-20.784-12z"/><path fill="#9E9E9E" d="M194.706 430.366l1.732 1 1-1.732-1.732-1-1 1.732zm-3 5.196l1.732 1 1-1.732-1.732-1-1 1.732zm6-10.392l1.732 1 1-1.732-1.732-1-1 1.732zm.464 7.196l12.124 7 1-1.732-12.124-7-1 1.732zm-3 5.196l12.124 7 1-1.732-12.124-7-1 1.732zm7-12.124l-1 1.732 12.124 7 1-1.732-12.124-7z"/><g><path d="M321.515 274.303l23.182 6.212-6.212 23.182-23.182-6.212z"/><path fill="#9E9E9E" fill-rule="nonzero" d="M329.266 283.627a1 1 0 0 1 1.932.517l-1.157 4.318 1.135.439 4.205 3.394c.45.369.621.964.471 1.524l-1.128 4.211a1.552 1.552 0 0 1-1.837 1.061l-6.279-1.682a1.354 1.354 0 0 1-.855-.675l-3.646-5.325.915-.552a.991.991 0 0 1 .797-.117l.213.056 2.645 2.49 2.589-9.66m2-3.604a4 4 0 0 1 2.83 4.899 3.956 3.956 0 0 1-2.828 2.824l.316-1.178a3.013 3.013 0 0 0 1.545-1.905 3 3 0 0 0-5.795-1.553c-.23.86-.06 1.734.386 2.423l-.316 1.178a3.956 3.956 0 0 1-1.036-3.86 4 4 0 0 1 4.899-2.828z"/></g><g><path d="M440 292h24v24h-24z"/><path fill="#9E9E9E" d="M443.9 304c0-1.71 1.39-3.1 3.1-3.1h4V299h-4c-2.76 0-5 2.24-5 5s2.24 5 5 5h4v-1.9h-4c-1.71 0-3.1-1.39-3.1-3.1zm4.1 1h8v-2h-8v2zm9-6h-4v1.9h4c1.71 0 3.1 1.39 3.1 3.1 0 1.71-1.39 3.1-3.1 3.1h-4v1.9h4c2.76 0 5-2.24 5-5s-2.24-5-5-5z"/></g><g><path d="M427 422h24v24h-24z"/><path fill="#9E9E9E" d="M447.71 427.63l-2.34-2.34a.996.996 0 0 0-1.41 0l-3.12 3.12-1.93-1.91-1.41 1.41 1.42 1.42-8.92 8.92V443h4.75l8.92-8.92 1.42 1.42 1.41-1.41-1.92-1.92 3.12-3.12c.4-.4.4-1.03.01-1.42zM433.92 441l-1.92-1.92 8.06-8.06 1.92 1.92-8.06 8.06z"/></g><g><path d="M331.303 119.515l23.182-6.212 6.212 23.182-23.182 6.212z"/><path fill="#9E9E9E" d="M340.533 134.641l.517 1.932 13.523-3.623-.517-1.932-13.523 3.623zm3.26-5.221l4.829-1.294 1.439 1.892 2.028-.544-7.435-9.396-1.449.389-1.741 11.854 2.028-.543.3-2.358zm.649-7.235l3.105 4.365-3.612.968.507-5.333z"/></g><g><path d="M323.303 408.515l23.182-6.212 6.212 23.182-23.182 6.212z"/><path fill="#9E9E9E" d="M334.325 414.879a3.001 3.001 0 0 1 3.25 1.2l8.86-2.374.517 1.932-8.86 2.374a3.001 3.001 0 0 1-5.465 1.465l-3.063.82-.517-1.932 3.062-.82a3.001 3.001 0 0 1 2.216-2.665zm.517 1.932a1 1 0 1 0 .518 1.932 1 1 0 0 0-.518-1.932z"/></g><path d="M0 0h480v480H0z"/></g></svg>