<?xml version="1.0" standalone="no"?>
<!DOCTYPE svg PUBLIC "-//W3C//DTD SVG 20010904//EN"
 "http://www.w3.org/TR/2001/REC-SVG-20010904/DTD/svg10.dtd">
<svg version="1.0" xmlns="http://www.w3.org/2000/svg"
 width="700.000000pt" height="700.000000pt" viewBox="0 0 700.000000 700.000000"
 preserveAspectRatio="xMidYMid meet">
<metadata>
Created by potrace 1.14, written by Peter Selinger 2001-2017
</metadata>
<g transform="translate(0.000000,700.000000) scale(0.100000,-0.100000)"
fill="#000000" stroke="none">
<path d="M1155 6993 c-242 -33 -493 -141 -675 -292 -205 -169 -349 -387 -425
-642 -23 -76 -28 -98 -45 -209 -11 -67 -8 -4705 3 -4740 4 -14 10 -40 13 -58
16 -94 75 -257 130 -360 187 -344 513 -585 905 -668 123 -26 393 -25 509 1 14
4 38 9 54 11 49 9 197 64 271 101 314 157 564 449 669 781 62 197 59 112 60
1860 1 1053 4 1592 11 1593 6 1 725 2 1600 4 1739 2 1651 -1 1844 60 474 150
830 563 905 1050 20 130 14 355 -13 474 -116 520 -507 906 -1031 1018 -80 17
-164 18 -1330 18 -685 0 -1265 -3 -1290 -7 -366 -59 -660 -234 -878 -524 l-38
-51 -34 51 c-55 79 -176 202 -268 271 -153 114 -353 204 -540 242 -73 14 -340
25 -407 16z m393 -463 c270 -74 495 -285 588 -550 45 -130 47 -152 48 -670 l1
-495 -872 0 -873 0 -1 25 c-4 109 0 889 5 940 36 393 373 736 761 775 39 4 71
8 72 9 9 8 212 -18 271 -34z m2818 27 c5 -4 8 -1306 5 -1683 l-1 -62 -870 0
-870 0 0 66 c-2 293 1 913 5 940 15 111 77 268 143 364 145 211 383 350 643
376 87 8 936 8 945 -1z m1419 0 c198 -22 377 -109 520 -253 101 -101 164 -202
209 -336 106 -315 30 -650 -203 -891 -128 -133 -259 -202 -476 -253 -39 -9
-1015 -15 -1016 -6 -1 4 -2 397 -3 874 -1 861 -1 867 19 870 37 5 899 1 950
-5z m-3597 -3057 l0 -870 -37 -1 c-228 -3 -1704 0 -1708 5 -5 4 -8 1688 -4
1729 1 4 394 7 875 7 l874 0 0 -870z m-2 -1795 c1 -438 -1 -488 -19 -570 -102
-481 -571 -782 -1050 -675 -285 64 -534 286 -629 560 -25 72 -35 120 -44 200
-8 77 -10 943 -1 956 3 6 352 9 874 9 l868 0 1 -480z"/>
</g>
</svg>
