<?xml version="1.0" standalone="no"?>
<!DOCTYPE svg PUBLIC "-//W3C//DTD SVG 20010904//EN"
 "http://www.w3.org/TR/2001/REC-SVG-20010904/DTD/svg10.dtd">
<svg version="1.0" xmlns="http://www.w3.org/2000/svg"
 width="700.000000pt" height="700.000000pt" viewBox="0 0 700.000000 700.000000"
 preserveAspectRatio="xMidYMid meet">
<metadata>
Created by potrace 1.11, written by Peter Selinger 2001-2013
</metadata>
<g transform="translate(0.000000,700.000000) scale(0.100000,-0.100000)"
fill="#000000" stroke="none">
<path d="M454 6985 c-210 -46 -395 -232 -440 -444 -11 -56 -14 -527 -14 -3037
0 -2091 3 -2988 11 -3030 6 -32 28 -97 50 -142 75 -163 244 -292 419 -322 47
-8 907 -10 3060 -8 l2995 3 55 21 c108 42 166 78 236 148 70 70 106 128 148
236 l21 55 3 2995 c2 2153 0 3013 -8 3060 -35 206 -191 380 -409 458 -42 15
-292 17 -3056 19 -2467 1 -3021 -1 -3071 -12z m5377 -1887 c3 -2344 -2 -3423
-17 -3487 -45 -200 -223 -378 -425 -426 -56 -13 -298 -15 -1893 -15 -2033 0
-1880 -5 -2021 68 -92 48 -189 145 -237 238 -68 129 -68 128 -68 822 l0 622
725 0 725 0 2 728 3 727 728 3 727 2 0 725 0 725 875 0 875 0 1 -732z"/>
<path d="M4821 5233 c-39 -93 -122 -289 -185 -438 l-114 -270 71 -3 c38 -2 73
1 78 5 4 4 69 160 145 345 76 186 139 336 141 335 1 -2 65 -156 142 -343 l139
-339 76 -3 c42 -2 76 1 76 5 0 12 -352 846 -363 861 -6 7 -34 12 -72 12 l-63
0 -71 -167z"/>
<path d="M2920 3500 l0 -580 580 0 580 0 0 580 0 580 -580 0 -580 0 0 -580z"/>
<path d="M4380 3500 l0 -580 580 0 580 0 0 580 0 580 -580 0 -580 0 0 -580z"/>
<path d="M1462 2148 c3 -476 3 -484 25 -524 34 -63 66 -97 125 -129 l53 -30
478 -3 477 -3 0 586 0 585 -580 0 -581 0 3 -482z"/>
<path d="M2920 2045 l0 -585 580 0 580 0 0 585 0 585 -580 0 -580 0 0 -585z"/>
<path d="M4380 2045 l0 -586 478 3 477 3 53 29 c54 30 94 72 128 136 18 33 19
67 22 518 l3 482 -581 0 -580 0 0 -585z"/>
</g>
</svg>
