<?xml version="1.0" standalone="no"?>
<!DOCTYPE svg PUBLIC "-//W3C//DTD SVG 20010904//EN"
 "http://www.w3.org/TR/2001/REC-SVG-20010904/DTD/svg10.dtd">
<svg version="1.0" xmlns="http://www.w3.org/2000/svg"
 width="700.000000pt" height="700.000000pt" viewBox="0 0 700.000000 700.000000"
 preserveAspectRatio="xMidYMid meet">
<metadata>
Created by potrace 1.14, written by Peter Selinger 2001-2017
</metadata>
<g transform="translate(0.000000,700.000000) scale(0.100000,-0.100000)"
fill="#000000" stroke="none">
<path d="M1105 6984 c-512 -91 -904 -436 -1050 -925 -23 -76 -28 -99 -45 -209
-11 -72 -11 -4640 0 -4705 5 -27 12 -67 15 -88 17 -99 74 -260 131 -365 188
-346 512 -584 909 -669 118 -25 392 -24 505 2 14 4 38 9 54 11 49 9 197 64
271 101 314 157 564 449 669 781 62 196 59 113 60 1859 1 1054 4 1593 11 1594
6 1 725 2 1600 4 1739 3 1652 0 1847 61 142 44 312 135 424 225 16 13 70 64
119 114 176 176 301 411 352 663 18 90 25 344 11 422 -5 30 -11 66 -12 80 -2
14 -9 45 -15 70 -131 493 -516 858 -1022 967 -79 17 -164 18 -1329 18 -685 0
-1265 -3 -1290 -7 -95 -16 -117 -21 -196 -44 -252 -73 -529 -267 -678 -476
l-40 -55 -45 61 c-183 251 -482 438 -799 503 -105 21 -354 25 -457 7z m444
-455 c267 -72 493 -283 587 -550 46 -131 52 -206 50 -704 l-1 -460 -867 -2
c-606 -1 -870 2 -875 10 -8 13 -7 879 1 962 39 399 389 743 784 771 48 4 88 7
89 8 8 6 170 -18 232 -35z m2811 32 c13 -1 15 -103 14 -863 -1 -475 -2 -868
-3 -874 -2 -17 -1738 -17 -1743 -1 -6 19 -1 948 5 991 19 121 78 269 148 373
45 66 162 180 232 226 125 83 260 130 415 145 51 5 848 8 932 3z m1425 -4
c198 -22 377 -109 520 -253 166 -165 256 -384 256 -619 -1 -389 -272 -744
-642 -840 -107 -28 -147 -30 -634 -30 l-470 0 -1 872 -1 872 51 3 c88 5 868 1
921 -5z m-3604 -2186 c4 0 6 -394 5 -873 l-1 -873 -868 0 c-511 0 -871 4 -874
9 -8 12 -8 1720 -1 1732 5 7 1704 12 1739 5z m7 -2665 c-1 -435 -3 -490 -21
-571 -102 -481 -571 -782 -1050 -675 -285 64 -534 286 -629 560 -47 137 -51
186 -50 680 0 234 1 439 1 456 l1 32 874 0 874 0 0 -482z"/>
</g>
</svg>
