<svg xmlns="http://www.w3.org/2000/svg" viewBox="0 0 48 48"><g fill="none" fill-rule="evenodd"><rect width="48" height="48" fill="#ED4747" rx="4"/><g stroke="#FFF" stroke-width="2"><path d="M9.879 38.121A2.99 2.99 0 0012 39h7V29H9v7c0 .828.336 1.578.879 2.121zM29 39h7a2.99 2.99 0 002.121-.879A2.99 2.99 0 0039 36v-7H29v10zm0-10H19v10h10zM39 19H29v10h10zm-10 0H19v10h10z"/><path fill="#FFF" d="M39 9H29v10h10z"/></g><path fill="#ED4747" d="M37 17l-2.529-6h-.94L31 17h1.035l1.947-4.746L35.93 17z"/></g></svg>
