<svg width="480" height="480" xmlns="http://www.w3.org/2000/svg">
  <g fill="none" fill-rule="evenodd" stroke="rgba(255, 255, 255, 0.5)" stroke-width="1.5">
    <path d="M37 337h6a6 6 0 010 12h-6 0v-12zM296.447 20.204a6 6 0 017.349 4.243l1.552 5.796h0l-11.59 3.105-1.554-5.795a6 6 0 014.243-7.349zM406 51h12v6a6 6 0 01-12 0v-6h0zM394 200h6a6 6 0 010 12h-6 0v-12zM341.447 119.204a6 6 0 017.349 4.243l1.552 5.796h0l-11.59 3.105-1.554-5.795a6 6 0 014.243-7.349zM249.652 206.757l11.59-3.105 1.554 5.795a6 6 0 01-11.592 3.106l-1.552-5.796h0zM322.757 278.652l5.796 1.552a6 6 0 01-3.106 11.592l-5.795-1.553h0l3.105-11.591zM449 295a6 6 0 016 6v6h0-12v-6a6 6 0 016-6zM439 425h3v12h-12v-3a9 9 0 019-9zM333.447 409.204a6 6 0 017.349 4.243l1.552 5.796h0l-11.59 3.105-1.554-5.795a6 6 0 014.243-7.349zM197.804 422.804l10.392 6-6 10.392-10.392-6zM261.45 352.98l2.898.777h0l-3.105 11.591-11.591-3.105.776-2.898a9 9 0 0111.023-6.364zM73.652 440.757l5.795-1.553a6 6 0 013.106 11.592l-5.796 1.552h0l-3.105-11.59zM147.804 332.804l10.392-6 3 5.196a6 6 0 01-10.392 6l-3-5.196h0zM211.757 102.652l11.591 3.105-1.552 5.796a6 6 0 01-11.592-3.106l1.553-5.795h0zM150.652 44.757l5.795-1.553a6 6 0 013.106 11.592l-5.796 1.552h0l-3.105-11.59zM31 200a6 6 0 016 6v6h0-12v-6a6 6 0 016-6zM106.757 131.652l5.796 1.552a6 6 0 01-3.106 11.592l-5.795-1.553h0l3.105-11.591zM91.652 232.757l11.59-3.105 3.106 11.59-11.59 3.106zM57.598 38.304l2.598-1.5h0l6 10.392-10.392 6-1.5-2.598a9 9 0 013.294-12.294z"/>
  </g>
</svg>
