<svg fill="none" xmlns="http://www.w3.org/2000/svg" viewBox="0 0 72 23">
  <g clip-path="url(#sticker)">
    <path fill-rule="evenodd" clip-rule="evenodd" d="M0 15V5A5 5 0 0 1 7.5.669 4.977 4.977 0 0 1 10 0h5a5 5 0 0 1 0 10h-5v5a5 5 0 0 1-10 0Z" fill="#fff"/>
    <path fill-rule="evenodd" clip-rule="evenodd" d="M20 5a2 2 0 0 1 2-2h6c.721 0 1.354.382 1.705.955A8.212 8.212 0 0 1 34 2.75c1.573 0 3.044.44 4.295 1.205A2 2 0 0 1 40 3h2a2 2 0 0 1 1.897 1.368L45 7.675l1.103-3.307A2 2 0 0 1 48 3h2a2 2 0 0 1 1.897 1.368L53 7.675l1.103-3.307A2 2 0 0 1 56 3h4a2 2 0 0 1 1.828 1.188L64 9.076l2.172-4.888A2 2 0 0 1 68 3h2a2 2 0 0 1 1.832 2.802l-7 16A2 2 0 0 1 63 23h-2a2 2 0 0 1-1.828-2.812l1.643-3.697-2.568-5.907-2.35 7.049A2 2 0 0 1 54 19h-2a2 2 0 0 1-1.897-1.367L49 14.325l-1.103 3.308A2 2 0 0 1 46 19h-2a2 2 0 0 1-1.897-1.367l-.88-2.642A8.253 8.253 0 0 1 26 13.024V17a2 2 0 0 1-2.001 2h-2a2 2 0 0 1-2-2V5Z" fill="#fff"/>
    <path fill-rule="evenodd" clip-rule="evenodd" d="M34 4.75a6.25 6.25 0 1 1 0 12.5 6.25 6.25 0 0 1 0-12.5Zm0 2a4.25 4.25 0 1 0 0 8.5 4.25 4.25 0 0 0 0-8.5ZM22 17V5h6v2h-4v10h-2Zm24 0 3-9 3 9h2l4-12 5 11.5-2 4.5h2l7-16h-2l-4 9-4-9h-4l-3 9-3-9h-2l-3 9-3-9h-2l4 12h2Z" fill="#000"/>
    <g fill-rule="evenodd" clip-rule="evenodd">
      <path d="M8 15v-3H2v3a3 3 0 1 0 6 0Zm-5-2h4v2l-.005.15A2 2 0 0 1 5 17l-.15-.006A2 2 0 0 1 3 15v-2Z" fill="url(#b)"/>
      <path d="M2 5v3h6V5a3 3 0 0 0-6 0Zm5 2H3V5l.005-.15A2 2 0 0 1 5 3l.15.005A2 2 0 0 1 7 5v2Z" fill="#4200FF"/>
      <path d="M8 13V7H2v6h6ZM3 8h4v4H3V8Z" fill="url(#c)"/>
      <path d="M15 2h-3v6h3a3 3 0 1 0 0-6Zm-1.999 5V3H15l.15.005A2 2 0 0 1 17 5l-.006.15A2 2 0 0 1 15 7h-1.999Z" fill="url(#d)"/>
      <path d="M7 5v3h6V2h-3a3 3 0 0 0-3 3Zm3-2h2v4H8V5l.005-.15A2 2 0 0 1 10 3Z" fill="url(#e)"/>
    </g>
  </g>
  <defs>
    <linearGradient id="b" x1="2.5" y1="12.999" x2="2.5" y2="18" gradientUnits="userSpaceOnUse">
      <stop stop-color="#F0A"/>
      <stop offset="1" stop-color="#FA0"/>
    </linearGradient>
    <linearGradient id="c" x1="2.488" y1="7.977" x2="2.488" y2="13" gradientUnits="userSpaceOnUse">
      <stop stop-color="#4200FF"/>
      <stop offset="1" stop-color="#F0A"/>
    </linearGradient>
    <linearGradient id="d" x1="13.017" y1="7.492" x2="18" y2="7.492" gradientUnits="userSpaceOnUse">
      <stop stop-color="#0AF"/>
      <stop offset="1" stop-color="#0FA"/>
    </linearGradient>
    <linearGradient id="e" x1="13" y1="2.498" x2="7.997" y2="2.498" gradientUnits="userSpaceOnUse">
      <stop stop-color="#0AF"/>
      <stop offset="1" stop-color="#4200FF"/>
    </linearGradient>
    <clipPath id="sticker">
      <path fill="#fff" d="M0 0h72v23H0z"/>
    </clipPath>
  </defs>
</svg>
